<svg width="149" height="35" viewBox="0 0 149 35" xmlns="http://www.w3.org/2000/svg">
    <title>Copper</title>
    <g fill="currentColor" fill-rule="nonzero">
        <path d="M26 13.9981908C26 6.927703 31.4433714 1.5 38.5 1.5 45.5566286 1.5 51 6.927703 51 13.9981908 51 21.0686785 45.5566286 26.5 38.4890255 26.5 31.4214223 26.5 26 21.072297 26 13.9981908zM45.278607 13.9981908C45.278607 9.65602837 42.3740123 6.60927775 38.5 6.60927775 34.6259877 6.60927775 31.7177349 9.66688377 31.7177349 13.9981908 31.7177349 18.3294978 34.6259877 21.3907222 38.5 21.3907222 42.3740123 21.3907222 45.278607 18.3331162 45.278607 13.9981908zM59.7160897 22.703333L59.6195216 22.703333 59.6195216 34.5 54 34.5 54 .962974806 59.6195216.962974806 59.6195216 3.73693444 59.7160897 3.73693444C61.7398334 1.64049451 64.5539164.468402438 67.486109.500648201 73.9487446.500648201 79 5.58624086 79 13.2219684 79 20.8576959 73.9413163 25.9432885 67.486109 25.9432885 64.5534467 25.9741369 61.7394517 24.8007526 59.7160897 22.703333zM59.5155252 13.2219684C59.5155252 17.7094719 62.512851 20.7622952 66.3532907 20.7622952 70.1937305 20.7622952 73.1910563 17.7094719 73.1910563 13.2219684 73.1910563 8.73446489 70.204873 5.68898011 66.3644332 5.68898011 62.5239935 5.68898011 59.5155252 8.73446489 59.5155252 13.2219684zM86.7123756 22.7033411L86.6195216 22.7033411 86.6195216 34.5 81 34.5 81 .962997611 86.6195216.962997611 86.6195216 3.73695536 86.7123756 3.73695536C88.7372634 1.63995023 91.5527182.467847835 94.486109.50067132 100.948745.50067132 106 5.58626052 106 13.2219828 106 20.8577052 100.94503 25.9432944 94.486109 25.9432944 91.5521602 25.9751637 88.7366217 24.8016976 86.7123756 22.7033411L86.7123756 22.7033411zM86.5229535 13.2219828C86.5229535 17.7094833 89.5202793 20.7623045 93.3607191 20.7623045 97.2011588 20.7623045 100.198485 17.7094833 100.198485 13.2219828 100.198485 8.73448241 97.2011588 5.6889997 93.3607191 5.6889997 89.5202793 5.6889997 86.5229535 8.73448241 86.5229535 13.2219828zM125.703782 18.3192962L131.4422 19.0908566C129.145374 24.589126 125.145982 26.5 120.22786 26.5 113.1952 26.5 108 21.4992789 108 14 108 6.50072108 113.213429 1.5 119.819535 1.5 126.254291 1.5 132 6.04283242 132 15.7702625L113.982683 15.7702625C114.398299 19.6352755 117.154489 21.6831555 120.2789 21.6831555 122.852803 21.6831555 124.785052 20.4104413 125.703782 18.3192962zM113.942579 11.5915777L125.893362 11.5915777C125.295458 8.54499567 122.812699 6.36371503 119.917971 6.36371503 117.023242 6.36371503 114.533192 8.54499567 113.942579 11.5915777zM140.638009 1.68936581L140.638009 4.49643547 140.731168 4.49643547C141.998137 2.90353483 143.831515 1.5 147.166622 1.5 147.787732 1.51114528 148.404465 1.60607236 149 1.78219219L149 7.40004456C148.21417 7.21839704 147.410615 7.12375961 146.603939 7.11785237 142.374501 7.11785237 140.641735 8.94467548 140.641735 12.9696272L140.641735 26.5 135 26.5 135 1.68936581 140.638009 1.68936581zM17.759008 17.779573C16.8825009 19.9141859 14.8223553 21.3595772 12.4746006 21.4870956 10.1268459 21.6146139 7.91581906 20.4012114 6.80317319 18.3746394 6.55156699 17.9053074 6.34902012 17.4123304 6.19861165 16.9032025L6.17649355 16.9032025C5.62114134 14.9997348 5.62114134 12.9822329 6.17649355 11.0787651L6.19861165 11.0787651C6.34962893 10.5710003 6.55215657 10.0792783 6.80317319 9.6109348 7.91751677 7.58126724 10.133389 6.3675387 12.4845119 6.49902124 14.8356347 6.63050377 16.8957032 8.083357 17.7663807 10.2240335 17.8794288 10.4957203 17.9826466 10.7806309 18.0760342 11.0787651L18.0760342 11.0787651C18.0863281 11.1058834 18.0949451 11.133583 18.1018386 11.1617138L24 11.1617138C23.8481605 10.3740705 23.6236017 9.60152616 23.3290841 8.85357761 21.5854402 4.33107328 17.5894358 1.5 12.4064265 1.5L11.8645329 1.5C7.29714421 1.5 3.6513432 3.71436815 1.66071373 7.34607617.534273142 9.38580594-.0369796142 11.6747012.00185584091 13.9927871-.0365635769 16.317449.537253724 18.6126565 1.66808643 20.6575303 3.6587159 24.2856319 7.30451691 26.5 11.8719056 26.5L12.4137992 26.5C17.5931222 26.5 21.5928129 23.6581073 23.3327705 19.1319965 23.5073462 18.6897589 23.6562659 18.2382328 23.7788189 17.779573L17.759008 17.779573z" transform="translate(-81.000000, -51.000000) translate(81.000000, 51.000000)"></path>
    </g>
</svg>
